<?xml version="1.0" standalone="no"?>
<!DOCTYPE svg PUBLIC "-//W3C//DTD SVG 20010904//EN"
 "http://www.w3.org/TR/2001/REC-SVG-20010904/DTD/svg10.dtd">
<svg version="1.0" xmlns="http://www.w3.org/2000/svg"
 width="657.000000pt" height="657.000000pt" viewBox="0 0 657.000000 657.000000"
 preserveAspectRatio="xMidYMid meet">

<g transform="translate(0.000000,657.000000) scale(0.100000,-0.100000)"
fill="#000000" stroke="none">
<path d="M3356 6528 c16 -19 86 -99 156 -177 70 -78 179 -207 242 -285 l115
-143 88 -22 c141 -35 275 -79 413 -135 l127 -52 74 100 c40 56 117 161 172
234 54 73 97 135 95 137 -14 12 -204 101 -298 138 -344 137 -674 207 -1099
233 l-115 7 30 -35z"/>
<path d="M2899 6530 c-172 -23 -335 -54 -427 -81 l-71 -22 24 -31 c74 -97 86
-211 34 -315 -37 -73 -86 -114 -167 -137 -62 -18 -140 -14 -200 12 -83 34
-150 134 -160 236 -2 32 -7 58 -9 58 -20 0 -288 -143 -380 -202 -50 -32 -61
-43 -54 -57 5 -9 58 -68 118 -131 59 -63 142 -153 184 -198 l76 -83 144 75
c250 129 486 211 760 265 238 46 334 55 572 54 119 -1 217 1 217 5 0 12 -125
159 -244 287 -61 66 -145 157 -185 203 -41 45 -79 81 -85 81 -6 -1 -72 -9
-147 -19z"/>
<path d="M4850 5855 c-91 -125 -169 -232 -174 -239 -7 -10 0 -24 24 -50 l34
-35 100 -3 101 -3 65 85 c196 257 241 323 228 336 -24 23 -192 134 -203 134
-6 0 -85 -101 -175 -225z"/>
<path d="M1003 5621 c-159 -158 -245 -257 -362 -419 -318 -439 -533 -967 -606
-1492 -26 -181 -31 -601 -11 -778 72 -616 278 -1150 629 -1625 79 -108 227
-279 237 -275 7 3 254 331 328 435 l23 32 -82 103 c-389 486 -591 1099 -578
1751 l4 178 -40 10 c-94 26 -167 87 -207 174 -17 38 -23 69 -23 125 0 65 4 84
33 142 59 120 160 181 303 181 l77 0 37 96 c90 229 246 499 410 707 43 55 141
161 217 236 101 101 137 142 131 152 -17 31 -359 406 -369 406 -7 0 -75 -62
-151 -139z"/>
<path d="M5609 5487 c-87 -116 -245 -332 -267 -364 l-23 -32 38 -43 c20 -24
55 -62 76 -85 l40 -42 30 41 c30 42 208 267 256 324 56 67 61 75 54 87 -14 25
-145 177 -152 177 -3 -1 -27 -29 -52 -63z"/>
<path d="M5922 5162 c-12 -15 -93 -114 -179 -221 -131 -162 -155 -196 -145
-210 46 -65 172 -300 211 -393 141 -332 208 -637 218 -985 3 -106 8 -193 10
-193 3 0 13 10 23 23 10 12 124 146 254 297 188 220 236 281 236 304 0 49 -48
265 -90 406 -54 176 -136 385 -212 535 -90 181 -264 454 -293 461 -5 1 -20 -9
-33 -24z"/>
<path d="M5027 4933 c-42 -31 -77 -62 -77 -68 0 -5 32 -46 71 -90 80 -90 167
-202 224 -287 l38 -58 86 45 c135 70 129 58 76 144 -50 80 -177 247 -248 324
-29 31 -52 47 -68 47 -15 0 -57 -24 -102 -57z"/>
<path d="M4868 4334 c-21 -11 -20 -12 14 -12 20 0 46 -3 58 -7 15 -5 26 -2 31
6 7 11 9 10 9 -3 0 -17 -10 -22 -37 -19 -7 1 -13 -2 -13 -8 0 -5 -9 -7 -20 -4
-11 3 -20 0 -20 -6 0 -6 -5 -11 -12 -11 -9 0 -9 3 0 12 19 19 14 33 -6 15 -10
-10 -27 -17 -38 -18 -18 0 -18 -1 1 -9 11 -5 14 -9 7 -9 -21 -1 -62 30 -55 42
4 6 1 7 -7 2 -10 -6 -8 -12 9 -27 13 -10 18 -18 12 -18 -6 0 -11 -14 -11 -31
0 -24 -3 -29 -17 -25 -22 7 -55 -13 -35 -21 6 -2 12 -11 12 -19 0 -8 5 -14 10
-14 15 0 12 -43 -6 -68 -16 -24 -28 -19 -51 22 -9 16 -11 17 -16 2 -4 -10 -3
-15 3 -11 6 3 10 -1 10 -9 0 -9 5 -16 11 -16 8 0 10 -18 5 -60 -5 -40 -3 -60
4 -60 6 0 16 -11 22 -25 6 -14 17 -24 24 -21 8 3 11 0 8 -8 -6 -15 55 -47 91
-50 13 0 21 -4 18 -8 -7 -13 71 -9 120 6 60 18 147 81 147 107 0 11 4 18 9 14
20 -12 45 110 35 168 -5 34 -8 38 -15 22 -6 -16 -8 -16 -8 -3 -1 9 -4 24 -8
34 -4 12 -3 15 6 10 9 -6 8 1 -3 22 -8 16 -22 32 -31 36 -10 3 -13 11 -9 18 6
11 5 11 -8 0 -12 -10 -24 -9 -62 5 -41 15 -48 16 -56 3 -7 -12 -12 -12 -22 -2
-9 9 -9 12 5 12 19 0 22 17 7 40 -11 18 -90 21 -122 4z m285 -129 c-3 -9 -8
-14 -10 -11 -3 3 -2 9 2 15 9 16 15 13 8 -4z"/>
<path d="M5483 4300 c-57 -27 -103 -51 -103 -54 0 -2 16 -41 35 -85 71 -168
114 -316 151 -531 26 -150 27 -539 1 -695 -40 -238 -91 -423 -173 -625 -28
-68 -46 -95 -89 -137 -52 -48 -55 -54 -55 -99 0 -131 160 -194 238 -94 32 41
146 276 186 383 119 320 166 580 166 924 0 286 -34 509 -116 753 -52 154 -114
302 -129 306 -5 2 -56 -19 -112 -46z"/>
<path d="M5010 4331 c0 -5 14 -20 31 -32 26 -18 33 -19 40 -8 8 13 13 6 10
-13 0 -5 4 -8 9 -8 21 0 3 33 -20 35 -3 1 -20 9 -37 18 -18 10 -33 13 -33 8z"/>
<path d="M4811 4316 c-16 -19 3 -31 26 -16 15 9 14 10 -7 5 -24 -6 -24 -5 -6
9 11 9 15 16 9 16 -6 0 -16 -6 -22 -14z"/>
<path d="M4700 4211 c0 -5 5 -13 10 -16 6 -3 10 -2 10 4 0 5 -4 13 -10 16 -5
3 -10 2 -10 -4z"/>
<path d="M4715 4150 c-8 -12 3 -50 14 -50 4 0 8 7 8 15 0 8 -5 12 -10 8 -5 -3
-6 3 -2 16 7 22 1 29 -10 11z"/>
<path d="M2866 3808 c3 -5 10 -6 15 -3 13 9 11 12 -6 12 -8 0 -12 -4 -9 -9z"/>
<path d="M826 3772 c-9 -15 -36 -177 -46 -281 -26 -262 1 -605 67 -841 25 -93
55 -170 65 -170 6 0 57 21 115 47 90 41 103 50 98 68 -33 116 -66 261 -81 355
-25 161 -26 498 -1 669 10 67 17 124 15 125 -4 3 -203 36 -217 36 -5 0 -12 -4
-15 -8z"/>
<path d="M3368 3763 c17 -2 47 -2 65 0 17 2 3 4 -33 4 -36 0 -50 -2 -32 -4z"/>
<path d="M3483 3763 c9 -2 25 -2 35 0 9 3 1 5 -18 5 -19 0 -27 -2 -17 -5z"/>
<path d="M3622 3760 c10 -6 47 -13 83 -17 106 -10 83 -28 -55 -43 -75 -8 -120
-17 -119 -24 1 -6 1 -26 0 -43 -1 -32 -3 -33 -41 -33 -22 0 -40 -4 -40 -10 0
-5 -18 -10 -40 -10 -38 0 -40 -2 -40 -30 0 -28 -2 -30 -40 -30 -22 0 -40 -4
-40 -10 0 -5 -18 -10 -40 -10 -38 0 -40 -2 -40 -30 0 -28 -2 -30 -40 -30 -22
0 -40 -4 -40 -10 0 -5 -18 -10 -39 -10 -22 0 -43 -4 -46 -10 -3 -5 -28 -10
-55 -10 -27 0 -52 -4 -55 -10 -4 -6 17 -10 54 -10 34 0 61 -4 61 -10 0 -5 -18
-10 -40 -10 -22 0 -40 -4 -40 -10 0 -6 -33 -10 -80 -10 -73 0 -80 -2 -80 -20
0 -17 7 -20 40 -20 22 0 40 -4 40 -10 0 -5 -18 -10 -40 -10 -22 0 -40 -4 -40
-10 0 -5 -18 -10 -40 -10 -22 0 -40 -4 -40 -10 0 -5 -18 -10 -40 -10 -33 0
-40 -3 -40 -20 0 -17 -7 -20 -40 -20 -22 0 -40 -4 -40 -10 0 -5 -20 -10 -43
-10 -31 0 -49 -6 -62 -20 -10 -11 -26 -20 -37 -20 -10 0 -18 -4 -18 -10 0 -5
-18 -10 -40 -10 -22 0 -40 -4 -40 -10 0 -5 -20 -10 -43 -10 -31 0 -49 -6 -62
-20 -18 -19 -17 -20 3 -20 20 0 22 -5 22 -55 0 -48 2 -55 20 -55 11 0 20 -4
20 -10 0 -13 -27 -13 -35 0 -8 13 -89 50 -110 50 -9 0 -13 -5 -10 -11 4 -6 13
-8 19 -6 20 8 14 -26 -7 -44 -18 -14 -18 -16 -4 -22 10 -4 16 -2 14 5 -1 6 8
11 21 13 20 1 27 -10 23 -37 0 -4 12 -3 27 2 26 10 26 9 7 -6 -20 -16 -20 -16
1 -10 25 8 56 -2 48 -15 -3 -5 2 -9 10 -9 9 0 19 0 24 0 4 0 7 6 7 12 0 7 9
14 20 15 18 3 18 2 2 -5 -38 -16 -15 -37 60 -52 177 -37 204 -39 756 -40 339
0 566 -4 595 -11 54 -12 139 -56 165 -84 30 -35 70 -105 76 -138 7 -33 33 -47
431 -231 77 -35 244 -116 580 -278 63 -30 118 -54 122 -51 13 7 57 158 79 270
30 151 24 381 -15 528 -58 224 -149 395 -299 567 -28 31 -54 55 -59 52 -5 -3
-7 -1 -6 4 6 20 -182 158 -284 209 -112 57 -263 110 -331 117 -23 2 -49 6 -57
9 -63 23 -574 38 -538 17z m285 -25 c0 -10 -16 -11 -60 -6 -5 1 -5 6 -2 11 8
14 62 9 62 -5z m38 -3 c-3 -3 -11 0 -18 7 -9 10 -8 11 6 5 10 -3 15 -9 12 -12z
m75 8 c0 -5 -7 -7 -15 -4 -8 4 -15 8 -15 10 0 2 7 4 15 4 8 0 15 -4 15 -10z
m133 -17 c-7 -2 -21 -2 -30 0 -10 3 -4 5 12 5 17 0 24 -2 18 -5z m-130 -10
c-7 -2 -21 -2 -30 0 -10 3 -4 5 12 5 17 0 24 -2 18 -5z m-253 -23 c0 -5 -18
-10 -40 -10 -22 0 -40 5 -40 10 0 6 18 10 40 10 22 0 40 -4 40 -10z"/>
<path d="M5174 3591 c-50 -30 -68 -105 -39 -161 56 -108 209 -88 238 31 10 39
-10 95 -44 123 -38 32 -108 35 -155 7z"/>
<path d="M6323 3177 c-346 -402 -336 -389 -372 -527 -91 -351 -268 -730 -467
-997 -231 -310 -475 -535 -768 -708 -74 -44 -135 -83 -136 -86 -1 -13 424
-409 439 -409 15 0 231 148 331 227 131 104 407 384 514 523 298 385 488 758
606 1186 83 305 102 464 98 816 l-3 258 -242 -283z"/>
<path d="M1320 3280 c-9 -6 -10 -10 -3 -10 6 0 15 5 18 10 8 12 4 12 -15 0z"/>
<path d="M1363 3235 c0 -8 4 -12 9 -9 5 3 6 10 3 15 -9 13 -12 11 -12 -6z"/>
<path d="M1265 3131 c-3 -5 -1 -12 5 -16 5 -3 10 1 10 9 0 18 -6 21 -15 7z"/>
<path d="M1355 3100 c3 -5 8 -10 11 -10 2 0 4 5 4 10 0 6 -5 10 -11 10 -5 0
-7 -4 -4 -10z"/>
<path d="M1993 3005 c0 -8 4 -12 9 -9 5 3 6 10 3 15 -9 13 -12 11 -12 -6z"/>
<path d="M2111 2961 c-11 -7 -9 -10 8 -16 26 -8 49 4 30 16 -17 11 -21 11 -38
0z"/>
<path d="M2060 2956 c0 -2 7 -6 15 -10 8 -3 15 -1 15 4 0 6 -7 10 -15 10 -8 0
-15 -2 -15 -4z"/>
<path d="M1594 2701 c-39 -10 -56 -20 -49 -31 3 -4 -2 -11 -11 -14 -10 -4 -13
-2 -9 7 4 6 -1 3 -9 -7 -9 -11 -16 -24 -16 -29 0 -4 -4 -6 -9 -3 -5 3 -14 -1
-20 -8 -8 -10 -9 -16 -1 -21 10 -6 14 1 10 20 -1 6 4 4 11 -3 11 -10 16 -8 26
10 11 22 12 22 8 -7 -2 -16 -4 -32 -4 -34 -1 -2 -8 2 -16 9 -12 10 -15 10 -15
0 0 -7 -8 -10 -20 -7 -20 5 -25 -6 -21 -42 2 -7 -2 -10 -7 -7 -10 6 -22 -49
-22 -104 0 -84 85 -193 170 -219 54 -16 136 -15 184 2 46 17 109 64 101 77 -3
5 0 12 6 16 8 5 9 3 4 -6 -6 -9 -4 -11 4 -5 46 28 68 193 35 258 -22 42 -21
42 -41 26 -17 -12 -17 -12 -1 6 16 17 15 20 -29 62 -25 23 -62 47 -82 53 -41
11 -131 12 -177 1z m-14 -21 c-12 -8 -12 -10 -1 -10 8 0 12 -3 8 -6 -3 -4 -14
-3 -24 0 -15 6 -15 8 -3 16 8 6 20 10 25 10 6 0 3 -5 -5 -10z"/>
<path d="M3996 2256 c-9 -49 -86 -146 -138 -176 l-43 -25 -837 -5 c-539 -3
-840 -9 -846 -15 -5 -5 -61 -84 -124 -175 -153 -221 -392 -557 -553 -777 l-46
-62 26 -7 c15 -4 66 -3 116 1 62 4 89 3 89 -4 0 -6 -63 -95 -140 -198 -107
-142 -137 -189 -129 -199 17 -20 185 -144 196 -144 5 0 29 28 53 63 102 146
296 405 328 439 l35 37 1061 4 1061 3 85 22 c104 28 260 101 364 171 102 69
255 223 338 341 66 92 154 247 146 256 -7 6 -272 133 -693 331 -99 47 -212
100 -252 119 -40 19 -77 34 -82 34 -5 0 -12 -16 -15 -34z"/>
<path d="M1135 2229 c-55 -27 -101 -54 -103 -59 -8 -23 194 -364 228 -385 11
-7 36 9 142 88 59 44 66 53 54 66 -28 34 -126 182 -171 259 -26 45 -47 82 -48
81 -1 0 -47 -23 -102 -50z"/>
<path d="M1958 663 c-73 -97 -138 -185 -143 -194 -6 -10 -8 -46 -5 -81 l5 -62
123 -53 c257 -111 532 -191 837 -245 101 -18 173 -22 463 -25 409 -6 578 10
892 83 219 51 580 188 659 251 8 6 -61 72 -256 248 l-192 172 -173 -58 c-609
-204 -1270 -183 -1898 61 -54 22 -117 48 -139 60 l-41 20 -132 -177z"/>
</g>
</svg>
